# xmcd CD database file
#
# Track frame offsets:
#	150
#	46835
#	74035
#	90898
#	121661
#	158458
#	190763
#	219075
#	253895
#	273035
#	305127
#	329358
#
# Disc length: 4784 seconds
#
# Revision: 0
# Processed by: cddbd v1.5.2PL0 Copyright (c) Steve Scherf et al.
# Submitted via: Feurio! 1.68 - http://www.feurio.com
#
DISCID=9b12ae0c
DTITLE=Various Artist -  BLUES Tonight 2015 (Januar)
DYEAR=1900
DGENRE=
TTITLE0=??? - ROBIN TROWER [ DAYDREAM ]   LIVE
TTITLE1=??? - The Doors, Who Do You Love?
TTITLE2=??? - The Rolling Stones - Paint It Black (Live) - OFFICIAL
TTITLE3=??? - Knopfler and Clapton - Same old blues [Music for Montserrat -97]
TTITLE4=??? - Steve Winwood - Dear Mr. Fantasy
TTITLE5=??? - Jimmy Page  "Prison Blues"
TTITLE6=??? - The  Doors-Gloria
TTITLE7=??? - Ten Years After - Spoonful
TTITLE8=??? - Eric Burdon and War-Bare Back Ride
TTITLE9=??? - Eric Clapton-Pretending
TTITLE10=??? - The Rolling Stones - Night Time Is The Right Time - Live On 
TTITLE10=Copacabana Beach
TTITLE11=??? - Steve Winwood // Traffic - John Barleycorn (Must Die)
EXTD=
EXTT0=
EXTT1=
EXTT2=
EXTT3=
EXTT4=
EXTT5=
EXTT6=
EXTT7=
EXTT8=
EXTT9=
EXTT10=
EXTT11=
PLAYORDER=
